<svg xmlns="http://www.w3.org/2000/svg" width="100" height="50" fill="none" viewBox="0 0 100 50">
  <g class="Timing-WaitOnEvent-Thumb">
    <path fill="#1E1E1E" d="M8.815 1.725 49.45 40.35a1 1 0 0 0 1.372.005L92.148 1.731c.663-.62.225-1.731-.682-1.731H9.503C8.6 0 8.16 1.103 8.815 1.725Z" class="Fill"/>
    <g class="Stroke">
      <path fill="#979797" d="M9.504 1V0h81.962v1H9.504Zm41.32 39.356a1 1 0 0 1-1.373-.005L8.815 1.725C8.16 1.102 8.6 0 9.504 0v1l40.637 38.626L91.466 1V0l.164.013c.74.116 1.092 1.006.63 1.596l-.112.121-41.325 38.626Z"/>
      <path fill="#979797" d="M53.535 45.622a.5.5 0 0 1 0 .707l-3.181 3.181a.5.5 0 0 1-.707 0l-3.182-3.181a.5.5 0 0 1 .707-.707L49.5 47.95v-7.49a.5.5 0 1 1 1 0v7.49l2.328-2.328a.5.5 0 0 1 .707 0Z"/>
    </g>
    <path fill="#979797" d="M35.239 13h-.8l-1.832-6.665h1.035l1.211 5.303h.05l1.303-5.303h.879l1.308 5.303h.05l1.21-5.303h1.03L38.857 13h-.806l-1.386-5.215h-.04L35.24 13Zm7.666.083c-.498 0-.903-.143-1.216-.43-.309-.29-.464-.672-.464-1.147 0-.45.154-.812.46-1.089.309-.28.758-.42 1.347-.42h1.343V9.49c0-.329-.098-.571-.293-.727-.192-.157-.453-.235-.781-.235-.218 0-.397.026-.537.078a.78.78 0 0 0-.323.215.896.896 0 0 0-.166.318h-.854c.02-.218.075-.41.166-.576.094-.17.223-.311.386-.425a1.73 1.73 0 0 1 .586-.264c.227-.062.485-.093.771-.093.355 0 .677.056.967.166.293.111.527.292.703.542.176.25.264.586.264 1.006V13h-.85v-.684h-.039a1.699 1.699 0 0 1-.327.381c-.13.118-.29.212-.479.284a1.96 1.96 0 0 1-.664.102Zm.244-.742c.235 0 .443-.047.625-.142.183-.097.328-.228.435-.39a.998.998 0 0 0 .166-.567v-.571h-1.27c-.348 0-.598.076-.752.23a.79.79 0 0 0-.224.576c0 .296.102.514.308.654.208.14.445.21.712.21Zm3.946.659V7.863h.884V13h-.884Zm-.186-6.719a.59.59 0 0 1 .176-.44.622.622 0 0 1 .444-.17c.186 0 .339.057.46.17.12.115.18.261.18.44 0 .176-.06.32-.18.435a.641.641 0 0 1-.46.17.622.622 0 0 1-.444-.17.58.58 0 0 1-.176-.435Zm3.208 1.597v-1.29h.875v1.29h1.162v.718h-1.162v2.959c0 .302.06.506.18.61.12.101.337.151.65.151.061 0 .135-.003.22-.01.084-.006.146-.01.185-.014V13c-.036.01-.125.02-.269.03a5.43 5.43 0 0 1-.361.014c-.407 0-.718-.052-.933-.156a.855.855 0 0 1-.434-.489c-.078-.22-.117-.5-.117-.84V8.597h-.786v-.718h.79Zm7.711-.098c.426 0 .805.09 1.138.269.335.176.599.434.79.776.193.339.289.746.289 1.22v.763c0 .481-.096.893-.288 1.235a1.952 1.952 0 0 1-.791.776 2.395 2.395 0 0 1-1.138.264c-.433 0-.817-.088-1.153-.264a1.928 1.928 0 0 1-.786-.771c-.188-.342-.283-.755-.283-1.24v-.757c0-.466.096-.868.288-1.206.192-.339.456-.6.791-.786a2.32 2.32 0 0 1 1.143-.279Zm.005.752c-.277 0-.516.069-.718.205a1.32 1.32 0 0 0-.464.562 1.986 1.986 0 0 0-.161.825v.62c0 .32.052.598.156.835.104.238.256.423.454.557.202.133.446.2.733.2.283 0 .522-.067.718-.2.198-.134.348-.32.449-.557a2.07 2.07 0 0 0 .156-.835v-.62c0-.316-.054-.592-.161-.83a1.218 1.218 0 0 0-1.162-.762ZM61.524 13V7.863h.874v.933h.05c.041-.137.116-.283.224-.44a1.33 1.33 0 0 1 .478-.405c.212-.114.497-.17.855-.17.517 0 .937.14 1.26.424.322.283.483.713.483 1.29V13h-.884V9.772c0-.27-.045-.494-.136-.673a.898.898 0 0 0-.381-.41 1.22 1.22 0 0 0-.596-.137c-.3 0-.55.07-.752.21a1.26 1.26 0 0 0-.444.571 2.12 2.12 0 0 0-.147.806V13h-.884Zm-20.037 9.209V23h-4.029v-6.665h4.029v.791h-3.135v2.09h2.96v.771h-2.96v2.222h3.135Zm2.651.791-1.806-5.137h.976l1.265 4.229h.034l1.362-4.229h.943L45.052 23h-.914Zm5.782.083c-.46 0-.853-.091-1.182-.273a1.876 1.876 0 0 1-.757-.787c-.172-.338-.258-.738-.258-1.2v-.782c0-.465.09-.866.273-1.201.186-.339.44-.6.762-.781a2.151 2.151 0 0 1 1.093-.279c.417 0 .785.093 1.104.279.322.185.575.447.757.786.182.338.273.737.273 1.196v.62h-3.383v.259c0 .397.112.732.336 1.006.225.273.55.41.977.41.199 0 .374-.028.527-.083.157-.059.282-.134.376-.225a.672.672 0 0 0 .19-.297h.909c-.02.136-.075.283-.166.439a1.679 1.679 0 0 1-.376.444 1.996 1.996 0 0 1-.605.337 2.48 2.48 0 0 1-.85.132Zm-1.32-3.061h2.505v-.083c0-.284-.052-.531-.156-.743a1.171 1.171 0 0 0-.44-.498 1.2 1.2 0 0 0-.654-.175c-.25 0-.47.058-.659.175a1.171 1.171 0 0 0-.44.498 1.661 1.661 0 0 0-.155.742v.085ZM53.446 23v-5.137h.873v.933h.05c.042-.137.117-.283.224-.44a1.33 1.33 0 0 1 .478-.405c.212-.114.497-.17.855-.17.517 0 .937.14 1.26.424.322.283.483.713.483 1.29V23h-.884v-3.227c0-.27-.045-.495-.136-.674a.897.897 0 0 0-.381-.41 1.22 1.22 0 0 0-.596-.137c-.3 0-.55.07-.752.21a1.26 1.26 0 0 0-.444.571 2.12 2.12 0 0 0-.147.806V23h-.883Zm6.211-5.122v-1.29h.874v1.29h1.162v.718H60.53v2.959c0 .302.06.506.18.61.12.101.337.151.65.151.062 0 .135-.003.22-.01.084-.006.146-.01.185-.014V23c-.036.01-.125.02-.269.03-.143.01-.263.014-.36.014-.408 0-.719-.052-.934-.156a.854.854 0 0 1-.434-.489c-.078-.22-.117-.5-.117-.84v-2.963h-.786v-.718h.79Z" class="Title"/>
    <g class="Arrow">
      <path stroke="#979797" stroke-linecap="round" stroke-linejoin="round" d="M23 25H12.068l6.386-6H9m12 8 3-2.154L21 23" class="Stroke"/>
    </g>
  </g>
</svg>
